<svg width="9" height="19" viewBox="0 0 9 19" fill="none" xmlns="http://www.w3.org/2000/svg">
<g clip-path="url(#clip0)">
<path d="M6.275 3.356C7.074 3.356 7.874 3.356 8.673 3.356C8.673 2.237 8.673 1.119 8.673 0C7.714 0 6.753 0 5.795 0C2.656 0.181 1.54 2.387 1.948 6.114H0V9.632H1.959C1.959 12.736 1.959 15.84 1.959 18.944C3.238 18.944 4.518 18.944 5.796 18.944C5.796 15.84 5.796 12.736 5.796 9.632H8.653V6.114H5.787C5.765 5.069 5.75 3.709 6.275 3.356Z" fill="white"/>
</g>
<defs>
<clipPath id="clip0">
<rect width="8.672" height="18.944" fill="white"/>
</clipPath>
</defs>
</svg>
