<svg width="18" height="15" viewBox="0 0 18 15" fill="none" xmlns="http://www.w3.org/2000/svg">
<g clip-path="url(#clip0)">
<path fill-rule="evenodd" clip-rule="evenodd" d="M11.283 0.153199C13.019 -0.330801 14.357 0.417199 14.968 1.3032C15.662 1.0782 16.34 0.833199 17.04 0.613199C17.036 1.4542 16.502 2.0912 16.157 2.3412C16.861 2.5062 17.5 1.8602 17.5 1.8602C17.325 2.8372 16.465 3.6062 15.889 3.8372C15.65 10.4292 12.617 14.7932 5.507 14.6602C4.969 14.6602 5.584 14.6602 5.047 14.6602C4.625 14.6602 0.757 14.2102 0 12.8172C2.341 13.0092 4.011 12.4052 4.835 11.6672C3.846 11.3742 2.074 11.2032 1.765 8.7862C2.127 8.8912 2.348 9.0092 2.993 8.9032C1.757 8.0672 0.385 7.3662 0.461 5.2182C0.755 5.5372 1.561 5.7412 1.842 5.6792C1.117 5.4442 -0.188 2.3982 0.921 0.843199C2.794 2.6552 4.769 4.3642 8.29 4.5282C8.506 2.2882 9.461 0.788199 11.283 0.153199Z" fill="white"/>
</g>
<defs>
<clipPath id="clip0">
<rect width="17.5" height="14.663" fill="white"/>
</clipPath>
</defs>
</svg>
